<?xml version="1.0" encoding="utf-8"?>
<svg version="1.1" xmlns:xlink="http://www.w3.org/1999/xlink" width="12px" height="12px" viewBox="1059 450  12 12" xmlns="http://www.w3.org/2000/svg">
  <path d="M 1065 450  C 1068.36 450  1071 452.64  1071 456  C 1071 459.36  1068.36 462  1065 462  C 1061.64 462  1059 459.36  1059 456  C 1059 452.64  1061.64 450  1065 450  Z " fill-rule="nonzero" fill="#ffffff" stroke="none" />
  <path d="M 1065 450.5  C 1068.08 450.5  1070.5 452.92  1070.5 456  C 1070.5 459.08  1068.08 461.5  1065 461.5  C 1061.92 461.5  1059.5 459.08  1059.5 456  C 1059.5 452.92  1061.92 450.5  1065 450.5  Z " stroke-width="1" stroke="#797979" fill="none" />
  <path d="M 1065 459  C 1063.32 459  1062 457.68  1062 456  C 1062 454.32  1063.32 453  1065 453  C 1066.68 453  1068 454.32  1068 456  C 1068 457.68  1066.68 459  1065 459  " fill-rule="nonzero" fill="#797979" stroke="none" />
</svg>