<?xml version="1.0" encoding="utf-8"?>
<svg version="1.1" xmlns:xlink="http://www.w3.org/1999/xlink" width="12px" height="12px" viewBox="419 450  12 12" xmlns="http://www.w3.org/2000/svg">
  <path d="M 425 450  C 428.36 450  431 452.64  431 456  C 431 459.36  428.36 462  425 462  C 421.64 462  419 459.36  419 456  C 419 452.64  421.64 450  425 450  Z " fill-rule="nonzero" fill="#f0f0f0" stroke="none" />
  <path d="M 425 450.5  C 428.08 450.5  430.5 452.92  430.5 456  C 430.5 459.08  428.08 461.5  425 461.5  C 421.92 461.5  419.5 459.08  419.5 456  C 419.5 452.92  421.92 450.5  425 450.5  Z " stroke-width="1" stroke="#797979" fill="none" />
  <path d="M 425 459  C 423.32 459  422 457.68  422 456  C 422 454.32  423.32 453  425 453  C 426.68 453  428 454.32  428 456  C 428 457.68  426.68 459  425 459  " fill-rule="nonzero" fill="#797979" stroke="none" />
</svg>