<?xml version="1.0" encoding="utf-8"?>
<svg version="1.1" xmlns:xlink="http://www.w3.org/1999/xlink" width="12px" height="12px" viewBox="279 380  12 12" xmlns="http://www.w3.org/2000/svg">
  <path d="M 285 380  C 288.36 380  291 382.64  291 386  C 291 389.36  288.36 392  285 392  C 281.64 392  279 389.36  279 386  C 279 382.64  281.64 380  285 380  Z " fill-rule="nonzero" fill="#f0f0f0" stroke="none" />
  <path d="M 285 380.5  C 288.08 380.5  290.5 382.92  290.5 386  C 290.5 389.08  288.08 391.5  285 391.5  C 281.92 391.5  279.5 389.08  279.5 386  C 279.5 382.92  281.92 380.5  285 380.5  Z " stroke-width="1" stroke="#797979" fill="none" />
  <path d="M 285 389  C 283.32 389  282 387.68  282 386  C 282 384.32  283.32 383  285 383  C 286.68 383  288 384.32  288 386  C 288 387.68  286.68 389  285 389  " fill-rule="nonzero" fill="#797979" stroke="none" />
</svg>