<?xml version="1.0" encoding="utf-8"?>
<svg version="1.1" xmlns:xlink="http://www.w3.org/1999/xlink" width="12px" height="12px" viewBox="279 410  12 12" xmlns="http://www.w3.org/2000/svg">
  <path d="M 285 410  C 288.36 410  291 412.64  291 416  C 291 419.36  288.36 422  285 422  C 281.64 422  279 419.36  279 416  C 279 412.64  281.64 410  285 410  Z " fill-rule="nonzero" fill="#ffffff" stroke="none" />
  <path d="M 285 410.5  C 288.08 410.5  290.5 412.92  290.5 416  C 290.5 419.08  288.08 421.5  285 421.5  C 281.92 421.5  279.5 419.08  279.5 416  C 279.5 412.92  281.92 410.5  285 410.5  Z " stroke-width="1" stroke="#797979" fill="none" />
  <path d="M 285 419  C 283.32 419  282 417.68  282 416  C 282 414.32  283.32 413  285 413  C 286.68 413  288 414.32  288 416  C 288 417.68  286.68 419  285 419  " fill-rule="nonzero" fill="#797979" stroke="none" />
</svg>