<?xml version="1.0" encoding="utf-8"?>
<svg version="1.1" xmlns:xlink="http://www.w3.org/1999/xlink" width="12px" height="12px" viewBox="919 360  12 12" xmlns="http://www.w3.org/2000/svg">
  <path d="M 925 360  C 928.36 360  931 362.64  931 366  C 931 369.36  928.36 372  925 372  C 921.64 372  919 369.36  919 366  C 919 362.64  921.64 360  925 360  Z " fill-rule="nonzero" fill="#f0f0f0" stroke="none" />
  <path d="M 925 360.5  C 928.08 360.5  930.5 362.92  930.5 366  C 930.5 369.08  928.08 371.5  925 371.5  C 921.92 371.5  919.5 369.08  919.5 366  C 919.5 362.92  921.92 360.5  925 360.5  Z " stroke-width="1" stroke="#797979" fill="none" />
  <path d="M 925 369  C 923.32 369  922 367.68  922 366  C 922 364.32  923.32 363  925 363  C 926.68 363  928 364.32  928 366  C 928 367.68  926.68 369  925 369  " fill-rule="nonzero" fill="#797979" stroke="none" />
</svg>