<?xml version="1.0" encoding="utf-8"?>
<svg version="1.1" xmlns:xlink="http://www.w3.org/1999/xlink" width="12px" height="12px" viewBox="1014 361  12 12" xmlns="http://www.w3.org/2000/svg">
  <path d="M 1020 361  C 1023.36 361  1026 363.64  1026 367  C 1026 370.36  1023.36 373  1020 373  C 1016.64 373  1014 370.36  1014 367  C 1014 363.64  1016.64 361  1020 361  Z " fill-rule="nonzero" fill="#ffffff" stroke="none" />
  <path d="M 1020 361.5  C 1023.08 361.5  1025.5 363.92  1025.5 367  C 1025.5 370.08  1023.08 372.5  1020 372.5  C 1016.92 372.5  1014.5 370.08  1014.5 367  C 1014.5 363.92  1016.92 361.5  1020 361.5  Z " stroke-width="1" stroke="#797979" fill="none" />
  <path d="M 1020 370  C 1018.32 370  1017 368.68  1017 367  C 1017 365.32  1018.32 364  1020 364  C 1021.68 364  1023 365.32  1023 367  C 1023 368.68  1021.68 370  1020 370  " fill-rule="nonzero" fill="#797979" stroke="none" />
</svg>