<?xml version="1.0" encoding="utf-8"?>
<svg version="1.1" xmlns:xlink="http://www.w3.org/1999/xlink" width="48px" height="22px" xmlns="http://www.w3.org/2000/svg">
  <g transform="matrix(1 0 0 1 -16 -69 )">
    <path d="M 8.3065506012024 3.83797998366013  C 8.3065506012024 1.72698801742919  10.0209168336673 0.0232162309368192  12.1345190380762 0.0232162309368192  C 14.248121242485 0.0232162309368192  15.9624874749499 1.73166870915033  15.9624874749499 3.83797998366013  C 15.9624874749499 5.94429125816993  14.248121242485 7.65274373638344  12.1345190380762 7.65274373638344  C 10.0209168336673 7.65274373638344  8.3065506012024 5.94429125816993  8.3065506012024 3.83797998366013  Z M 47.7369739478958 18.9612949346405  C 48.1080285571142 19.4574482570806  48.0140906813627 20.1595520152505  47.5209168336673 20.5340073529412  C 47.0277429859719 20.9131433823529  46.3185120240481 20.8148488562091  45.9427605210421 20.3233762254902  L 37.5118361723447 9.2254561546841  C 37.4883517034068 9.19269131263617  35.1352079158317 6.18300653594771  32.279496492986 6.47320942265795  C 29.9545340681363 6.7353281590414  27.6718436873748 9.20205269607843  25.6803607214429 13.6112642973856  C 23.5667585170341 18.2966367102396  21.4954283567134 20.739957788671  19.1657690380762 21.3110021786492  C 16.5261147294589 21.9475762527233  14.248121242485 20.1642327069717  11.8386147294589 18.2638718681917  L 11.5333166332665 18.0251565904139  C 8.71048346693387 15.8205507897603  7.3624749498998 16.3213848039216  1.92816883767535 21.6292892156863  C 1.7121117234469 21.8446010348584  1.42560120240481 21.9522569444444  1.1437875751503 21.9522569444444  C 0.852580160320645 21.9522569444444  0.556675851703411 21.8399203431372  0.340618737474954 21.6152471405229  C -0.0914954909819602 21.1705814270152  -0.0867985971943851 20.459116285403  0.359406312625254 20.0238119553377  C 5.29584168336673 15.2073801742919  8.31124749498998 12.6517224945534  12.9282940881764 16.265216503268  L 13.2382890781563 16.5039317810458  C 15.2955285571142 18.1234511165577  17.0756513026052 19.5229779411765  18.6350200400802 19.1344805283224  C 20.1896918837675 18.7553444989107  21.8664829659319 16.5928649237473  23.6278181362725 12.6985294117647  C 25.999749498998 7.43743191721133  28.8272795591182 4.58689065904139  32.0446518036072 4.23583877995643  C 36.1826152304609 3.79585375816993  39.1933241482966 7.7042313453159  39.3154433867735 7.87273624727669  L 47.7369739478958 18.9612949346405  Z " fill-rule="nonzero" fill="#d7d7d7" stroke="none" transform="matrix(1 0 0 1 16 69 )" />
  </g>
</svg>