<?xml version="1.0" encoding="utf-8"?>
<svg version="1.1" xmlns:xlink="http://www.w3.org/1999/xlink" width="12px" height="12px" viewBox="83 9  12 12" xmlns="http://www.w3.org/2000/svg">
  <path d="M 89 9  C 92.36 9  95 11.64  95 15  C 95 18.36  92.36 21  89 21  C 85.64 21  83 18.36  83 15  C 83 11.64  85.64 9  89 9  Z " fill-rule="nonzero" fill="#ffffff" stroke="none" />
  <path d="M 89 9.5  C 92.08 9.5  94.5 11.92  94.5 15  C 94.5 18.08  92.08 20.5  89 20.5  C 85.92 20.5  83.5 18.08  83.5 15  C 83.5 11.92  85.92 9.5  89 9.5  Z " stroke-width="1" stroke="#797979" fill="none" />
  <path d="M 89 18  C 87.32 18  86 16.68  86 15  C 86 13.32  87.32 12  89 12  C 90.68 12  92 13.32  92 15  C 92 16.68  90.68 18  89 18  " fill-rule="nonzero" fill="#797979" stroke="none" />
</svg>