<?xml version="1.0" encoding="utf-8"?>
<svg version="1.1" xmlns:xlink="http://www.w3.org/1999/xlink" width="12px" height="12px" viewBox="178 10  12 12" xmlns="http://www.w3.org/2000/svg">
  <path d="M 184 10  C 187.36 10  190 12.64  190 16  C 190 19.36  187.36 22  184 22  C 180.64 22  178 19.36  178 16  C 178 12.64  180.64 10  184 10  Z " fill-rule="nonzero" fill="#f0f0f0" stroke="none" />
  <path d="M 184 10.5  C 187.08 10.5  189.5 12.92  189.5 16  C 189.5 19.08  187.08 21.5  184 21.5  C 180.92 21.5  178.5 19.08  178.5 16  C 178.5 12.92  180.92 10.5  184 10.5  Z " stroke-width="1" stroke="#797979" fill="none" />
  <path d="M 184 19  C 182.32 19  181 17.68  181 16  C 181 14.32  182.32 13  184 13  C 185.68 13  187 14.32  187 16  C 187 17.68  185.68 19  184 19  " fill-rule="nonzero" fill="#797979" stroke="none" />
</svg>