<?xml version="1.0" encoding="utf-8"?>
<svg version="1.1" xmlns:xlink="http://www.w3.org/1999/xlink" width="34px" height="32px" xmlns="http://www.w3.org/2000/svg">
  <g transform="matrix(1 0 0 1 -13 -14 )">
    <path d="M 34 4.50272585669782  C 33.9810267857143 2.02998442367601  32.0267857142857 0.0245327102803738  29.6171875 0  L 4.43024553571429 0  C 2.02064732142857 0.0245327102803738  0.06640625 2.02998442367601  0 4.50272585669782  L 0 25.6767912772586  C 0.00948660714285714 25.9104361370716  0.00948660714285714 26.1343457943925  0.06640625 26.3582554517134  L 0.06640625 27.5070093457944  C 0.06640625 29.9797507788162  2.02064732142857 31.9852024922118  4.43024553571429 32  L 29.6171875 32  C 32.0267857142857 31.9852024922118  33.9810267857143 29.9797507788162  34 27.5070093457944  L 34 4.50272585669782  Z M 3 4.50272585669782  C 2.72265625 3.52920560747664  3.48158482142857 2.75038940809969  4.43024553571429 3  L 29.6171875 3  C 30.5563616071429 2.75038940809969  31.3247767857143 3.53894080996885  31 4.50272585669782  L 31 21.5101246105919  C 30.3381696428571 20.13746105919  29.1428571428571 18.6382398753894  27.9001116071429 17.4505451713396  C 27.16015625 16.7398753894081  26.2399553571429 16.4478193146417  25.234375 16.5938473520249  C 23.6501116071429 16.827492211838  21.9140625 18.1806853582555  19.9313616071429 20.7215732087227  C 19.45703125 21.3251557632399  19.0301339285714 21.928738317757  18.6791294642857 22.4447040498442  C 16.93359375 19.9719626168224  13.4994419642857 15.4061526479751  10.5870535714286 13.3033489096573  C 9.72377232142857 12.6802959501558  8.75613839285714 12.5342679127726  7.76953125 12.8652647975078  C 6.69754464285714 13.2254672897196  5.65401785714285 14.160046728972  4.59151785714286 15.7176791277259  C 3.97488839285714 16.6133177570093  3.34877232142857 17.7231308411215  3 19.0276479750779  L 3 4.50272585669782  Z " fill-rule="nonzero" fill="#ffffff" stroke="none" transform="matrix(1 0 0 1 13 14 )" />
  </g>
</svg>