<?xml version="1.0" encoding="utf-8"?>
<svg version="1.1" xmlns:xlink="http://www.w3.org/1999/xlink" width="12px" height="12px" viewBox="374 441  12 12" xmlns="http://www.w3.org/2000/svg">
  <path d="M 380 441  C 383.36 441  386 443.64  386 447  C 386 450.36  383.36 453  380 453  C 376.64 453  374 450.36  374 447  C 374 443.64  376.64 441  380 441  Z " fill-rule="nonzero" fill="#ffffff" stroke="none" />
  <path d="M 380 441.5  C 383.08 441.5  385.5 443.92  385.5 447  C 385.5 450.08  383.08 452.5  380 452.5  C 376.92 452.5  374.5 450.08  374.5 447  C 374.5 443.92  376.92 441.5  380 441.5  Z " stroke-width="1" stroke="#797979" fill="none" />
  <path d="M 380 450  C 378.32 450  377 448.68  377 447  C 377 445.32  378.32 444  380 444  C 381.68 444  383 445.32  383 447  C 383 448.68  381.68 450  380 450  " fill-rule="nonzero" fill="#797979" stroke="none" />
</svg>