<?xml version="1.0" encoding="utf-8"?>
<svg version="1.1" xmlns:xlink="http://www.w3.org/1999/xlink" width="12px" height="12px" viewBox="919 440  12 12" xmlns="http://www.w3.org/2000/svg">
  <path d="M 925 440  C 928.36 440  931 442.64  931 446  C 931 449.36  928.36 452  925 452  C 921.64 452  919 449.36  919 446  C 919 442.64  921.64 440  925 440  Z " fill-rule="nonzero" fill="#ffffff" stroke="none" />
  <path d="M 925 440.5  C 928.08 440.5  930.5 442.92  930.5 446  C 930.5 449.08  928.08 451.5  925 451.5  C 921.92 451.5  919.5 449.08  919.5 446  C 919.5 442.92  921.92 440.5  925 440.5  Z " stroke-width="1" stroke="#797979" fill="none" />
  <path d="M 925 449  C 923.32 449  922 447.68  922 446  C 922 444.32  923.32 443  925 443  C 926.68 443  928 444.32  928 446  C 928 447.68  926.68 449  925 449  " fill-rule="nonzero" fill="#797979" stroke="none" />
</svg>