<?xml version="1.0" encoding="utf-8"?>
<svg version="1.1" xmlns:xlink="http://www.w3.org/1999/xlink" width="12px" height="12px" viewBox="1014 441  12 12" xmlns="http://www.w3.org/2000/svg">
  <path d="M 1020 441  C 1023.36 441  1026 443.64  1026 447  C 1026 450.36  1023.36 453  1020 453  C 1016.64 453  1014 450.36  1014 447  C 1014 443.64  1016.64 441  1020 441  Z " fill-rule="nonzero" fill="#f0f0f0" stroke="none" />
  <path d="M 1020 441.5  C 1023.08 441.5  1025.5 443.92  1025.5 447  C 1025.5 450.08  1023.08 452.5  1020 452.5  C 1016.92 452.5  1014.5 450.08  1014.5 447  C 1014.5 443.92  1016.92 441.5  1020 441.5  Z " stroke-width="1" stroke="#797979" fill="none" />
  <path d="M 1020 450  C 1018.32 450  1017 448.68  1017 447  C 1017 445.32  1018.32 444  1020 444  C 1021.68 444  1023 445.32  1023 447  C 1023 448.68  1021.68 450  1020 450  " fill-rule="nonzero" fill="#797979" stroke="none" />
</svg>